<?xml version="1.0" encoding="UTF-8" standalone="no"?>
<!DOCTYPE svg PUBLIC "-//W3C//DTD SVG 1.1//EN" "http://www.w3.org/Graphics/SVG/1.1/DTD/svg11.dtd">
<svg width="100%" height="100%" viewBox="0 0 750 750" version="1.1" xmlns="http://www.w3.org/2000/svg" xmlns:xlink="http://www.w3.org/1999/xlink" xml:space="preserve" xmlns:serif="http://www.serif.com/" style="fill-rule:evenodd;clip-rule:evenodd;stroke-linejoin:round;stroke-miterlimit:2;">
    <g transform="matrix(1,0,0,1,-2759,-1546.66)">
        <g id="cms-logo" serif:id="cms logo" transform="matrix(1.5,0,0,1.5,2759,1546.66)">
            <rect x="0" y="0" width="500" height="500" style="fill:none;"/>
            <g transform="matrix(9.28455,0,0,9.28455,-2595.71,-836.975)">
                <circle cx="306.5" cy="117.074" r="26.926" style="fill:rgb(244,244,244);"/>
            </g>
            <g transform="matrix(1,0,0,1,-2485.03,-1668.93)">
                <g transform="matrix(441.189,0,0,440.085,2589,2064.6)">
                    <path d="M0.003,-0L0.284,-0.662L0.378,-0.662L0.659,-0L0.576,-0L0.495,-0.192L0.167,-0.192L0.086,-0L0.003,-0ZM0.196,-0.261L0.466,-0.261L0.331,-0.584L0.196,-0.261Z" style="fill:rgb(0,152,95);fill-rule:nonzero;"/>
                </g>
            </g>
            <g transform="matrix(1,0,0,1,-2485.03,-1668.93)">
                <g transform="matrix(441.189,0,0,440.085,2589,2064.6)">
                    <path d="M0.003,-0L0.284,-0.662L0.378,-0.662L0.659,-0L0.576,-0L0.495,-0.192L0.167,-0.192L0.086,-0L0.003,-0ZM0.196,-0.261L0.466,-0.261L0.331,-0.584L0.196,-0.261Z" style="fill:rgb(0,152,95);fill-rule:nonzero;"/>
                </g>
            </g>
        </g>
    </g>
</svg>
