<?xml version="1.0" encoding="UTF-8" standalone="no"?>
<!DOCTYPE svg PUBLIC "-//W3C//DTD SVG 1.1//EN" "http://www.w3.org/Graphics/SVG/1.1/DTD/svg11.dtd">
<svg width="100%" height="100%" viewBox="0 0 750 750" version="1.1" xmlns="http://www.w3.org/2000/svg" xmlns:xlink="http://www.w3.org/1999/xlink" xml:space="preserve" xmlns:serif="http://www.serif.com/" style="fill-rule:evenodd;clip-rule:evenodd;stroke-linejoin:round;stroke-miterlimit:2;">
    <g transform="matrix(1,0,0,1,-1912,-1546.66)">
        <g id="cms-logo" serif:id="cms logo" transform="matrix(1.5,0,0,1.5,1912,1546.66)">
            <rect x="0" y="0" width="500" height="500" style="fill:none;"/>
            <clipPath id="_clip1">
                <rect x="0" y="0" width="500" height="500"/>
            </clipPath>
            <g clip-path="url(#_clip1)">
                <g transform="matrix(5.83083,0,0,4.20168,-19684.9,-13453.8)">
                    <path d="M3461.75,3212.47C3461.75,3206.69 3458.37,3202 3454.2,3202L3383.55,3202C3379.38,3202 3376,3206.69 3376,3212.47L3376,3310.53C3376,3316.31 3379.38,3321 3383.55,3321L3454.2,3321C3458.37,3321 3461.75,3316.31 3461.75,3310.53L3461.75,3212.47Z" style="fill:white;"/>
                </g>
                <g transform="matrix(3.77103,0,0,3.7616,-2098.82,-608.604)">
                    <g transform="matrix(40,0,0,40,566,221)">
                        <path d="M0.003,-0L0.284,-0.662L0.378,-0.662L0.659,-0L0.576,-0L0.495,-0.192L0.167,-0.192L0.086,-0L0.003,-0ZM0.196,-0.261L0.466,-0.261L0.331,-0.584L0.196,-0.261Z" style="fill:rgb(84,84,84);fill-rule:nonzero;"/>
                    </g>
                    <g transform="matrix(40,0,0,40,592.48,221)">
                        <path d="M0.065,-0L0.065,-0.5L0.14,-0.5L0.14,-0.422C0.158,-0.446 0.18,-0.466 0.206,-0.483C0.232,-0.5 0.265,-0.508 0.306,-0.508C0.341,-0.508 0.373,-0.5 0.404,-0.484C0.434,-0.467 0.459,-0.443 0.478,-0.411C0.497,-0.378 0.506,-0.338 0.506,-0.291L0.506,-0L0.431,-0L0.431,-0.289C0.431,-0.334 0.418,-0.371 0.392,-0.399C0.366,-0.426 0.332,-0.44 0.291,-0.44C0.263,-0.44 0.238,-0.434 0.215,-0.421C0.192,-0.408 0.174,-0.391 0.161,-0.368C0.147,-0.345 0.14,-0.318 0.14,-0.288L0.14,-0L0.065,-0Z" style="fill:rgb(84,84,84);fill-rule:nonzero;"/>
                    </g>
                    <g transform="matrix(40,0,0,40,615.12,221)">
                        <path d="M0.294,0.206C0.231,0.206 0.18,0.193 0.141,0.166C0.102,0.138 0.075,0.103 0.061,0.06L0.144,0.06C0.154,0.085 0.171,0.104 0.196,0.118C0.221,0.131 0.252,0.138 0.29,0.138C0.347,0.138 0.389,0.125 0.416,0.098C0.442,0.071 0.455,0.031 0.455,-0.02L0.455,-0.089C0.436,-0.062 0.412,-0.041 0.383,-0.025C0.353,-0.008 0.317,-0 0.276,-0C0.227,-0 0.185,-0.011 0.149,-0.034C0.112,-0.056 0.084,-0.086 0.064,-0.125C0.044,-0.164 0.034,-0.207 0.034,-0.254C0.034,-0.302 0.044,-0.345 0.064,-0.384C0.084,-0.422 0.112,-0.452 0.149,-0.475C0.185,-0.497 0.227,-0.508 0.276,-0.508C0.317,-0.508 0.353,-0.5 0.383,-0.485C0.412,-0.469 0.436,-0.447 0.455,-0.42L0.455,-0.5L0.53,-0.5L0.53,-0.015C0.53,0.056 0.51,0.111 0.469,0.149C0.428,0.187 0.369,0.206 0.294,0.206ZM0.286,-0.068C0.323,-0.068 0.354,-0.076 0.38,-0.093C0.405,-0.11 0.425,-0.132 0.439,-0.161C0.452,-0.189 0.459,-0.22 0.459,-0.254C0.459,-0.289 0.452,-0.32 0.439,-0.348C0.425,-0.376 0.405,-0.398 0.38,-0.415C0.354,-0.432 0.323,-0.44 0.286,-0.44C0.249,-0.44 0.218,-0.432 0.191,-0.415C0.164,-0.398 0.144,-0.376 0.13,-0.348C0.116,-0.32 0.109,-0.289 0.109,-0.254C0.109,-0.22 0.116,-0.189 0.13,-0.161C0.144,-0.132 0.164,-0.11 0.191,-0.093C0.218,-0.076 0.249,-0.068 0.286,-0.068Z" style="fill:rgb(84,84,84);fill-rule:nonzero;"/>
                    </g>
                    <g transform="matrix(40,0,0,40,638.92,221)">
                        <path d="M0.26,0.008C0.226,0.008 0.194,-0 0.163,-0.017C0.132,-0.033 0.108,-0.057 0.089,-0.09C0.069,-0.122 0.06,-0.162 0.06,-0.209L0.06,-0.5L0.135,-0.5L0.135,-0.211C0.135,-0.166 0.148,-0.129 0.175,-0.102C0.201,-0.074 0.234,-0.06 0.275,-0.06C0.303,-0.06 0.328,-0.067 0.351,-0.08C0.374,-0.093 0.392,-0.11 0.406,-0.133C0.419,-0.156 0.426,-0.182 0.426,-0.212L0.426,-0.5L0.501,-0.5L0.501,-0L0.426,-0L0.426,-0.078C0.408,-0.054 0.386,-0.034 0.36,-0.017C0.334,-0 0.301,0.008 0.26,0.008Z" style="fill:rgb(84,84,84);fill-rule:nonzero;"/>
                    </g>
                    <g transform="matrix(40,0,0,40,661.56,221)">
                        <path d="M0.247,0.008C0.201,0.008 0.162,0 0.131,-0.015C0.099,-0.03 0.075,-0.05 0.058,-0.076C0.041,-0.1 0.032,-0.128 0.03,-0.157L0.108,-0.157C0.11,-0.14 0.116,-0.124 0.126,-0.109C0.135,-0.093 0.15,-0.08 0.17,-0.071C0.19,-0.061 0.216,-0.056 0.248,-0.056C0.258,-0.056 0.27,-0.057 0.285,-0.059C0.3,-0.061 0.314,-0.065 0.328,-0.07C0.341,-0.075 0.353,-0.083 0.362,-0.094C0.371,-0.105 0.376,-0.118 0.376,-0.135C0.376,-0.156 0.368,-0.172 0.352,-0.183C0.336,-0.194 0.315,-0.203 0.29,-0.21C0.265,-0.216 0.238,-0.222 0.21,-0.228C0.181,-0.234 0.154,-0.242 0.129,-0.252C0.104,-0.261 0.083,-0.275 0.067,-0.293C0.051,-0.31 0.043,-0.334 0.043,-0.365C0.043,-0.41 0.059,-0.446 0.093,-0.471C0.126,-0.496 0.174,-0.508 0.239,-0.508C0.283,-0.508 0.319,-0.501 0.347,-0.488C0.374,-0.474 0.395,-0.456 0.41,-0.435C0.424,-0.414 0.432,-0.391 0.435,-0.366L0.359,-0.366C0.356,-0.387 0.346,-0.406 0.328,-0.421C0.309,-0.436 0.279,-0.444 0.237,-0.444C0.158,-0.444 0.118,-0.42 0.118,-0.372C0.118,-0.352 0.126,-0.337 0.142,-0.326C0.158,-0.315 0.179,-0.307 0.204,-0.301C0.229,-0.294 0.256,-0.288 0.285,-0.283C0.313,-0.277 0.34,-0.269 0.365,-0.259C0.39,-0.249 0.411,-0.235 0.427,-0.217C0.443,-0.198 0.451,-0.173 0.451,-0.142C0.451,-0.093 0.433,-0.056 0.396,-0.031C0.359,-0.005 0.309,0.008 0.247,0.008Z" style="fill:rgb(84,84,84);fill-rule:nonzero;"/>
                    </g>
                </g>
                <g transform="matrix(3.20035,0,0,3.19234,-1696.77,-329.631)">
                    <g transform="matrix(40,0,0,40,566,221)">
                        <path d="M0.359,0.008C0.293,0.008 0.236,-0.007 0.188,-0.038C0.14,-0.068 0.103,-0.109 0.078,-0.16C0.052,-0.211 0.039,-0.268 0.039,-0.331C0.039,-0.394 0.052,-0.451 0.078,-0.502C0.103,-0.553 0.14,-0.594 0.188,-0.625C0.236,-0.655 0.293,-0.67 0.359,-0.67C0.409,-0.67 0.454,-0.661 0.494,-0.644C0.534,-0.626 0.568,-0.602 0.596,-0.571C0.624,-0.54 0.645,-0.505 0.659,-0.464L0.58,-0.464C0.563,-0.505 0.537,-0.537 0.501,-0.561C0.465,-0.585 0.42,-0.597 0.365,-0.597C0.312,-0.597 0.266,-0.585 0.229,-0.562C0.191,-0.538 0.162,-0.506 0.143,-0.466C0.124,-0.426 0.114,-0.381 0.114,-0.331C0.114,-0.282 0.124,-0.237 0.143,-0.197C0.162,-0.156 0.191,-0.124 0.229,-0.101C0.266,-0.077 0.312,-0.065 0.365,-0.065C0.42,-0.065 0.465,-0.077 0.501,-0.101C0.537,-0.125 0.563,-0.157 0.58,-0.198L0.659,-0.198C0.645,-0.158 0.624,-0.123 0.596,-0.092C0.568,-0.061 0.534,-0.036 0.494,-0.019C0.454,-0.001 0.409,0.008 0.359,0.008Z" style="fill:rgb(0,152,95);fill-rule:nonzero;"/>
                    </g>
                    <g transform="matrix(40,0,0,40,593.6,221)">
                        <path d="M0.081,-0L0.081,-0.662L0.168,-0.662L0.405,-0.348L0.638,-0.662L0.725,-0.662L0.725,-0L0.65,-0L0.65,-0.548L0.405,-0.233L0.156,-0.548L0.156,-0L0.081,-0Z" style="fill:rgb(0,152,95);fill-rule:nonzero;"/>
                    </g>
                    <g transform="matrix(40,0,0,40,625.84,221)">
                        <path d="M0.318,0.008C0.253,0.008 0.2,-0.001 0.159,-0.019C0.118,-0.036 0.088,-0.061 0.068,-0.092C0.047,-0.123 0.035,-0.159 0.032,-0.198L0.11,-0.198C0.112,-0.166 0.123,-0.14 0.142,-0.121C0.161,-0.101 0.187,-0.086 0.219,-0.077C0.25,-0.068 0.285,-0.063 0.323,-0.063C0.379,-0.063 0.423,-0.073 0.456,-0.093C0.489,-0.112 0.505,-0.141 0.505,-0.18C0.505,-0.203 0.497,-0.222 0.481,-0.237C0.464,-0.251 0.443,-0.263 0.416,-0.272C0.389,-0.281 0.359,-0.29 0.327,-0.298C0.295,-0.305 0.263,-0.313 0.231,-0.322C0.198,-0.331 0.169,-0.342 0.142,-0.355C0.115,-0.368 0.093,-0.386 0.077,-0.407C0.06,-0.428 0.052,-0.454 0.052,-0.487C0.052,-0.541 0.073,-0.585 0.115,-0.619C0.156,-0.653 0.218,-0.67 0.301,-0.67C0.36,-0.67 0.408,-0.661 0.446,-0.644C0.484,-0.626 0.513,-0.603 0.532,-0.574C0.551,-0.545 0.561,-0.514 0.563,-0.481L0.486,-0.481C0.482,-0.514 0.465,-0.543 0.436,-0.566C0.407,-0.588 0.362,-0.6 0.301,-0.6C0.264,-0.6 0.233,-0.596 0.21,-0.589C0.187,-0.582 0.169,-0.572 0.157,-0.561C0.144,-0.549 0.136,-0.537 0.132,-0.524C0.127,-0.511 0.125,-0.499 0.125,-0.488C0.125,-0.466 0.133,-0.448 0.15,-0.435C0.166,-0.421 0.188,-0.41 0.215,-0.401C0.242,-0.392 0.271,-0.383 0.304,-0.376C0.337,-0.369 0.369,-0.361 0.402,-0.352C0.434,-0.343 0.464,-0.331 0.491,-0.318C0.518,-0.304 0.539,-0.286 0.556,-0.265C0.572,-0.244 0.58,-0.216 0.58,-0.183C0.58,-0.122 0.557,-0.075 0.51,-0.042C0.463,-0.009 0.399,0.008 0.318,0.008Z" style="fill:rgb(0,152,95);fill-rule:nonzero;"/>
                    </g>
                </g>
            </g>
        </g>
    </g>
</svg>
